<?xml version="1.0" encoding="UTF-8" standalone="no"?>
<!-- Created with Inkscape (http://www.inkscape.org/) -->

<svg
   xmlns:dc="http://purl.org/dc/elements/1.1/"
   xmlns:cc="http://creativecommons.org/ns#"
   xmlns:rdf="http://www.w3.org/1999/02/22-rdf-syntax-ns#"
   xmlns:svg="http://www.w3.org/2000/svg"
   xmlns="http://www.w3.org/2000/svg"
   xmlns:sodipodi="http://sodipodi.sourceforge.net/DTD/sodipodi-0.dtd"
   xmlns:inkscape="http://www.inkscape.org/namespaces/inkscape"
   width="60.326653mm"
   height="52.916664mm"
   viewBox="0 0 60.326653 52.916664"
   version="1.1"
   id="svg3956"
   inkscape:version="0.92.4 (5da689c313, 2019-01-14)"
   sodipodi:docname="LA2_Logo.svg">
  <defs
     id="defs3950">
    <clipPath
       id="clipPath3813"
       clipPathUnits="userSpaceOnUse">
      <path
         style="clip-rule:evenodd"
         inkscape:connector-curvature="0"
         id="path3811"
         d="M 71.875,71.875 H 368.75 v 625 H 71.875 Z" />
    </clipPath>
    <clipPath
       id="clipPath3801"
       clipPathUnits="userSpaceOnUse">
      <path
         style="clip-rule:evenodd"
         inkscape:connector-curvature="0"
         id="path3799"
         d="M 126.86076,71.875 H 368.68084 V 670.96826 H 126.86076 Z" />
    </clipPath>
    <clipPath
       id="clipPath3785"
       clipPathUnits="userSpaceOnUse">
      <path
         style="clip-rule:evenodd"
         inkscape:connector-curvature="0"
         id="path3783"
         d="M 71.875,71.875 H 368.75 v 625 H 71.875 Z" />
    </clipPath>
    <clipPath
       id="clipPath3773"
       clipPathUnits="userSpaceOnUse">
      <path
         style="clip-rule:evenodd"
         inkscape:connector-curvature="0"
         id="path3771"
         d="M 340.29666,73.997032 H 786.96619 V 696.87502 H 340.29666 Z" />
    </clipPath>
    <clipPath
       id="clipPath3755"
       clipPathUnits="userSpaceOnUse">
      <path
         style="clip-rule:evenodd"
         inkscape:connector-curvature="0"
         id="path3753"
         d="m 340.09122,71.875 h 446.87497 v 625 H 340.09122 Z" />
    </clipPath>
  </defs>
  <sodipodi:namedview
     id="base"
     pagecolor="#ffffff"
     bordercolor="#666666"
     borderopacity="1.0"
     inkscape:pageopacity="0.0"
     inkscape:pageshadow="2"
     inkscape:zoom="3.959798"
     inkscape:cx="70.259102"
     inkscape:cy="113.66877"
     inkscape:document-units="mm"
     inkscape:current-layer="layer1"
     showgrid="false"
     inkscape:window-width="1920"
     inkscape:window-height="1137"
     inkscape:window-x="1912"
     inkscape:window-y="-8"
     inkscape:window-maximized="1"
     fit-margin-top="0"
     fit-margin-left="0"
     fit-margin-right="0"
     fit-margin-bottom="0"
     showborder="true" />
  <metadata
     id="metadata3953">
    <rdf:RDF>
      <cc:Work
         rdf:about="">
        <dc:format>image/svg+xml</dc:format>
        <dc:type
           rdf:resource="http://purl.org/dc/dcmitype/StillImage" />
        <dc:title></dc:title>
      </cc:Work>
    </rdf:RDF>
  </metadata>
  <g
     inkscape:label="Layer 1"
     inkscape:groupmode="layer"
     id="layer1"
     transform="translate(-0.00401867,-0.13212869)">
    <g
       transform="matrix(0.08466666,0,0,0.08466666,-6.299126,-5.9532875)"
       id="g3749">
      <g
         clip-path="url(#clipPath3755)"
         id="g3751">
        <g
           transform="matrix(1.2564763,0,0,1.2482524,340.29666,72.748779)"
           id="g3757">
          <path
             inkscape:connector-curvature="0"
             id="path3759"
             style="fill:#e9eaf7;fill-opacity:1;fill-rule:nonzero;stroke:none"
             d="m 155.08203,71.0625 c 1.99609,-0.132812 6.59766,-0.433594 7.57422,-0.507812 0.88672,-0.06641 2.04687,-1.535157 2.66016,-2.398438 -0.0703,-0.214844 -0.14844,-0.417969 -0.22266,-0.628906 -1.72266,0.01563 -6.39453,0.101562 -7.80859,0.640625 -1.08204,0.410156 -2.02344,1.445312 -2.58594,2.171875 -0.23438,0.304687 -0.004,0.746094 0.38281,0.722656 z m 104.12891,36.30078 -25.80469,9.45703 c 0,0 -0.80859,-0.8125 -2.42969,-1.62109 -1.62109,-0.8125 -6.62109,2.83594 -6.62109,2.83594 0,0 0,0 -2.69922,-1.75782 -2.70312,-1.7539 -4.1875,2.11329 -4.1875,2.11329 L 182.20703,90.949219 c -0.0781,0.04297 -0.14062,0.09766 -0.21484,0.140625 -4.16016,-2.910156 -10.0625,-4.566406 -15.27344,-4.726563 -0.6875,-0.02344 -1.35938,0.05469 -2.00391,0.210938 -9.36718,-0.765625 -31.03125,-2.820313 -36.61328,-5.777344 C 120.92188,76.996094 64.476563,37.589844 64.476563,37.589844 59.804688,42.996094 58.4375,50.515625 60.90625,57.222656 l 3.570313,9.710938 c 0,2.875 1.171875,5.621094 3.246093,7.613281 7.875,7.546875 27.566407,26.339845 30.59375,28.355465 0.890625,0.59375 3.253904,1.76172 6.453124,3.19532 -0.64844,27.24609 -2.01562,106.25781 2.90234,135.5 5.98829,35.58203 16.79297,77.73047 16.79297,77.73047 l 55.97266,-26.46875 5.10547,17.28125 c 0,0 25.34375,-14.78125 32.94531,-32.51954 0,0 -24.61328,-86.52343 -26.60937,-103.78125 -0.63672,-5.53125 -0.91407,-17.08984 -1.3711,-30.16015 8.51953,5.58203 20.19141,12.75781 23.90625,12.75781 6.07813,0 44.79688,-7.39453 44.79688,-7.39453 V 133.02734 L 261.45703,129.5 c 4.46094,-7.01172 3.53125,-16.16797 -2.24609,-22.13672 z m -73.34375,321.9961 11.34375,37.72265 h 16.375 L 198.72266,393.71094 Z M 83.558594,383.94141 h 20.531246 l -0.66796,26.76562 -8.750005,0.008 c 0,0 0,0 -2.601562,-3.9375 -2.601563,-3.93359 -8.511719,-5.72265 -8.511719,-5.72265 V 383.9416" />
          <path
             inkscape:connector-curvature="0"
             id="path3761"
             style="fill:#e24e34;fill-opacity:1;fill-rule:nonzero;stroke:none"
             d="m 165.97656,81.210938 c -2.01172,-0.0078 -7.00781,-0.273438 -11.67187,3.574218 -4.66016,3.851563 -17.22266,17.492184 -17.22266,17.496094 L 138.22656,86.414063 143.38281,61.75 c 4.60156,1.320313 4.69141,1.777344 5.21485,3.648438 2.51562,8.996093 11.98828,15.371093 17.09375,14.515625 l 0.28515,1.296875" />
          <path
             inkscape:connector-curvature="0"
             id="path3763"
             style="fill:#f35f43;fill-opacity:1;fill-rule:nonzero;stroke:none"
             d="m 297.4375,108.08984 c -3.44922,2.02344 -7.22266,4.65625 -7.22266,4.65625 -1.37109,0.25 -2.57031,0.42578 -3.24609,0.42578 -2.42969,0 -27.75781,19.85547 -27.75781,19.85547 v -25.66406 l 24.6289,-9.027342 c 0,0 10.47266,-8.414063 13.59766,-10.105469 0,0 10.05859,2.027344 11.14063,6.957031 1.08203,4.92969 -7.6875,10.875 -11.14063,12.90234 z M 39.316406,21.714844 l 25.160157,15.875 v 29.34375 L 36.136719,33.445313 C 33.765625,30.640625 30.605469,28.613281 27.066406,27.625 26.300781,27.410156 25.527344,27.191406 24.8125,26.984375 c -3.242187,-0.945312 -8.511719,0 -10.269531,-1.621094 -1.753906,-1.621093 2.839844,-3.511718 5.808594,-4.457031 2.972656,-0.945312 4.191406,-1.621094 4.191406,-1.621094 L 19.40625,6.8554692 14.816406,0.23437501 c 0,0 3.511719,-0.94531293 4.863282,0.94921899 1.347656,1.890625 5.132812,2.027344 6.078125,3.644531 0.945312,1.6210942 4.1875,4.1875 5.671875,6.214844 1.488281,2.027342 5.132812,4.460937 5.675781,5.945312 0.539062,1.484375 2.210937,4.726563 2.210937,4.726563 z M 163.59766,68.519531 c -0.41407,0.589844 -1.20313,1.585938 -1.80469,1.632813 -0.66406,0.05078 -3.78906,0.253906 -5.14844,0.34375 -0.26172,0.01563 -0.41797,-0.28125 -0.25781,-0.492188 0.38281,-0.492187 1.02344,-1.195312 1.7539,-1.472656 0.96485,-0.367187 4.13672,-0.425781 5.3086,-0.4375 0.27344,0 0.4375,0 0.4375,0 0,0 -0.11328,0.179688 -0.28906,0.425781 z m 5.72656,-13.011718 c 1.24219,-3.53125 -3.875,-8.800782 -3.875,-8.800782 -6.08203,-3.785156 -12.36719,-2.539062 -17.09766,0 -2.35937,1.265625 -3.91015,4.242188 -4.61719,7.925782 -2.03125,0.179687 -3.73828,1.953125 -3.88281,4.179687 -0.15234,2.347656 1.48047,4.285156 3.67188,4.367188 0.17578,1.453125 0.45703,2.90625 0.85156,4.316406 2.51562,8.992187 5.87891,11.761719 7.38281,12.542969 1.09766,0.574218 8.82813,0.730468 13.9336,-0.125 1.93359,-0.320313 3.49218,-0.789063 4.16797,-1.433594 2.41406,-2.304688 -0.0352,-8.34375 -0.22266,-12.089844 -0.23828,-4.707031 -1.59766,-7.238281 -0.3125,-10.882812" />
          <path
             inkscape:connector-curvature="0"
             id="path3765"
             style="fill:#7180c9;fill-opacity:1;fill-rule:nonzero;stroke:none"
             d="m 352.61719,78.765625 -48.20313,-14.207031 -6.97656,23.671875 -1.85547,6.300781 c 2.11719,0.648438 6.60938,2.050781 7.53125,2.566406 1.21485,0.671875 0.20313,2.968754 -1.82422,2.902344 -2.02734,-0.06641 -3.84765,0 -3.84765,0 0,0 -0.19141,0.46484 -0.54297,1.11719 0,0.004 0,0.004 0,0.004 -0.0899,0.16797 -0.19141,0.35157 -0.30469,0.53907 -0.0234,0.043 -0.0508,0.0898 -0.0781,0.13281 -0.0899,0.15234 -0.1875,0.30859 -0.29297,0.46875 -0.0312,0.0508 -0.0664,0.10156 -0.10157,0.15625 -0.13281,0.19922 -0.27343,0.40234 -0.42968,0.60547 -0.0195,0.0273 -0.043,0.0547 -0.0625,0.082 -0.13282,0.17187 -0.27344,0.33984 -0.42188,0.50781 -0.0508,0.0586 -0.10156,0.11328 -0.15234,0.17188 -0.14063,0.15234 -0.28906,0.30078 -0.4375,0.4414 -0.043,0.0391 -0.082,0.0781 -0.125,0.11719 -0.1875,0.16797 -0.38672,0.32812 -0.58985,0.46875 -0.0508,0.0391 -0.10546,0.0664 -0.15625,0.10156 -0.16406,0.10547 -0.33203,0.20313 -0.50781,0.28907 -0.0625,0.0312 -0.1289,0.0625 -0.1914,0.0898 -0.23047,0.0977 -0.46485,0.18359 -0.70704,0.23437 l -2.125,7.21875 -5.5039,18.67578 45.86328,13.51563 2.33984,0.69141 3.49219,1.02734 9.38672,-31.85156 c -0.96875,-1.77735 -1.53516,-2.82031 -2.46484,-4.52344 l 9.28906,-31.515625 z m -160.73828,269.718755 -5.04688,-39.125 c -0.8164,0.5039 -1.28906,0.78125 -1.28906,0.78125 l -28.52344,-96.53516 -8.31641,-39.0625 c -6.36718,-29.90625 -3.73437,-57.52344 11.09766,-84.257814 1.41016,-2.480468 4.06641,-4.011718 6.91797,-3.921875 0.32422,0.0078 0.66016,0.03516 0.99219,0.05859 0,0 0.004,-0.0078 0.004,-0.0078 0,0 0.27735,-5.203125 -1.73828,-5.203125 -2.01172,-0.0078 -7.00781,-0.273438 -11.67187,3.574218 l -15.48438,-1.207031 1.23438,-5.914062 c 0,0 -2.97266,0.90625 -4.1875,2.847656 -1.21875,1.941406 -1.78516,5.847656 -1.78516,5.847656 -4.22656,2.65625 -9.99219,6.769531 -11.64062,10.34375 -15.08985,32.679687 -2.52344,111.648437 -2.52344,111.648437 0,0 1.73047,1.57422 5.74609,3.13282 h -0.004 l -52.578129,88.02343 c -2.21875,3.71094 -3.304687,7.99219 -3.121093,12.3125 l 3.171875,75.05469 h 33.499997 l 0.54297,-70.24609 c 0,0 21.79297,-18.20313 38.43359,-35.95313 l 33.50001,167.80078 c 0,0 20.61718,12.42578 32.16796,1.41797 l -9.08203,-76.49219 -10.3164,-24.91796 z M 0.50781208,414.56641 H 122.08594 V 500 H 0.50781208 v -85.43359" />
        </g>
      </g>
    </g>
    <g
       transform="matrix(0.08466666,0,0,0.08466666,-6.299126,-5.9532875)"
       id="g3767">
      <g
         clip-path="url(#clipPath3773)"
         id="g3769">
        <g
           transform="matrix(1.2564763,0,0,1.2482524,340.29666,72.748779)"
           id="g3775">
          <path
             inkscape:connector-curvature="0"
             id="path3777"
             style="fill:#15253d;fill-opacity:1;fill-rule:nonzero;stroke:none"
             d="m 353.25,78.949219 -0.63281,-0.183594 -9.28906,31.515625 c 0.26953,0.49219 0.5039,0.92578 0.73046,1.33984 1.29688,-0.70312 2.22657,-1.21093 3.69532,-2.01172 l 8.75,-29.699214 z M 24.992188,9.9101563 C 24.785156,9.875 24.550781,9.9804688 24.449219,10.1875 c -0.125,0.25 -0.02344,0.554688 0.226562,0.675781 l 1.375,0.683594 c 0.0078,0.0039 0.01563,0.0078 0.01953,0.0078 l 10.347656,5.124999 c 0.07031,0.03516 0.148437,0.05078 0.222656,0.05078 0.1875,0 0.367188,-0.101563 0.457031,-0.28125 0.121094,-0.25 0.01953,-0.554688 -0.230468,-0.679688 l -4.234375,-2.09375 -6.09375,-8.6015618 C 26.375,4.84375 26.058594,4.7929688 25.832031,4.953125 25.605469,5.1132808 25.550781,5.4335938 25.710938,5.6601563 L 30.71875,12.726563 26.644531,10.710938 21.496094,2.0625 C 21.351563,1.820312 21.039063,1.738281 20.800781,1.882812 20.5625,2.027344 20.480469,2.339844 20.625,2.578125 Z M 145.70703,298.38672 121.96484,309.68359 c -0.25,0.1211 -0.35937,0.42188 -0.23828,0.67579 0.0859,0.18359 0.26953,0.28906 0.45703,0.28906 0.0742,0 0.14844,-0.0156 0.21875,-0.0508 l 23.73828,-11.29297 c 0.25391,-0.1211 0.36329,-0.42188 0.24219,-0.67578 -0.12109,-0.25391 -0.42578,-0.35938 -0.67578,-0.24219 z M 122.08594,491.50781 H 0.50781208 C 0.22656199,491.50781 0,491.73438 0,492.01172 c 0,0.28125 0.22656199,0.50781 0.50781208,0.50781 H 122.08594 c 0.28125,0 0.50781,-0.22656 0.50781,-0.50781 0,-0.27734 -0.22656,-0.50391 -0.50781,-0.50391 z M 68.671875,75.960938 c 0.0039,0 0.0078,0 0.0078,0 0.28125,-0.0078 0.503906,-0.238282 0.496093,-0.515625 L 68.460938,40 c -0.0078,-0.277344 -0.222657,-0.496094 -0.519532,-0.496094 -0.277343,0.0039 -0.5,0.234375 -0.496093,0.515625 l 0.71875,35.445313 c 0.0078,0.277344 0.230468,0.496094 0.507812,0.496094 z m 36.085935,30.644532 c 0.004,0 0.004,0 0.008,0 0.27734,0 0.5039,-0.21875 0.50781,-0.4961 0.19531,-8.917964 8.32812,-23.699214 8.41015,-23.847651 0.13282,-0.242188 0.043,-0.550781 -0.19921,-0.6875 -0.2461,-0.136719 -0.55079,-0.05078 -0.6875,0.195312 -0.34375,0.617188 -8.33594,15.148438 -8.53516,24.316409 -0.008,0.28125 0.21484,0.51172 0.49609,0.51953 z m -0.45312,24.75 c 0.0391,0.004 4.30078,0.043 8.49609,0.87109 0.0352,0.008 0.0664,0.008 0.10156,0.008 0.23438,0 0.44532,-0.16796 0.4961,-0.40624 0.0547,-0.27344 -0.125,-0.54297 -0.39844,-0.59766 -4.29687,-0.84766 -8.64453,-0.88672 -8.6875,-0.88672 -0.004,0 -0.004,0 -0.004,0 -0.28125,0 -0.50781,0.22656 -0.50781,0.50391 -0.004,0.28125 0.22266,0.50781 0.50391,0.50781 z m -3.29297,188.48047 c 0.0117,0 0.0234,0 0.0352,0 4.64062,-0.3086 6.41796,-2.73828 6.54296,-2.91406 0.0703,-0.10157 0.10547,-0.22657 0.0898,-0.35547 -0.0352,-0.27735 -0.28906,-0.48047 -0.5625,-0.44141 -2.78516,0.33203 -5.00782,-0.58984 -5.03125,-0.60156 -0.25781,-0.10938 -0.55469,0.0117 -0.66016,0.26953 -0.10937,0.25781 0.0117,0.55469 0.26563,0.66406 0.0859,0.0352 1.79687,0.7461 4.16406,0.75391 -0.86328,0.64844 -2.40625,1.44922 -4.875,1.61328 -0.28125,0.0195 -0.49219,0.25781 -0.47266,0.53906 0.0195,0.26953 0.24219,0.47266 0.50391,0.47266 z M 254.53906,108.56641 c -0.28125,0 -0.50781,0.22656 -0.50781,0.50781 v 40.84765 c 0,0.28125 0.22656,0.50782 0.50781,0.50782 0.27735,0 0.50782,-0.22657 0.50782,-0.50782 v -40.84765 c 0,-0.28125 -0.23047,-0.50781 -0.50782,-0.50781 z m 36.94922,-3.38282 c -0.0156,0.008 -1.41406,0.875 -4.32031,-0.0586 -0.26563,-0.082 -0.55078,0.0625 -0.63672,0.32813 -0.0859,0.26562 0.0586,0.55078 0.32813,0.63671 1.11718,0.35938 2.05468,0.48047 2.80859,0.48047 1.54687,0 2.33203,-0.51172 2.38281,-0.54297 0.23047,-0.15625 0.28906,-0.46484 0.13672,-0.69921 -0.15234,-0.23047 -0.46094,-0.29297 -0.69922,-0.14454 z M 117.29297,224.16406 c 0.0898,0 0.17969,-0.0234 0.26172,-0.0742 l 8.36719,-5.0664 c 0.23828,-0.14453 0.3164,-0.45313 0.17187,-0.69531 -0.14453,-0.23829 -0.45703,-0.3125 -0.69531,-0.17188 l -8.3711,5.06641 c -0.23828,0.14453 -0.3125,0.45703 -0.16797,0.69922 0.0938,0.15625 0.26172,0.24218 0.4336,0.24218 z M 297.62891,94.636719 293.55078,93.191406 c -0.26562,-0.09375 -0.55469,0.04297 -0.64844,0.304688 -0.0937,0.265625 0.0469,0.554687 0.3086,0.648437 l 4.08203,1.445313 c 0.0547,0.01953 0.11328,0.03125 0.16797,0.03125 0.21094,0 0.40625,-0.132813 0.48047,-0.339844 0.0898,-0.261719 -0.0469,-0.550781 -0.3125,-0.644531 z M 138.85937,258.625 c -0.27343,0.0625 -0.44531,0.33594 -0.3789,0.60938 0.0195,0.0859 2.0664,8.78906 5.58984,14.80468 0.0781,0.13282 0.20703,0.21875 0.35156,0.24219 l 1.00391,6.13672 c 0.0391,0.24609 0.25391,0.42578 0.49609,0.42578 0.0273,0 0.0586,-0.004 0.0859,-0.008 0.27344,-0.0469 0.46094,-0.30469 0.41797,-0.58203 l -3.75781,-22.97266 c -0.0469,-0.27734 -0.3086,-0.46484 -0.58203,-0.41797 -0.27735,0.043 -0.46485,0.30469 -0.41797,0.58203 l 2.35156,14.375 c -2.87891,-5.69531 -4.53516,-12.73828 -4.55469,-12.8164 -0.0625,-0.27344 -0.32812,-0.44532 -0.60547,-0.37891 z m 85.59376,-141.25 -2.54297,3.16016 c -0.17578,0.21875 -0.14063,0.53906 0.0781,0.71484 0.0937,0.0742 0.20703,0.10937 0.31641,0.10937 0.14844,0 0.29687,-0.0625 0.39453,-0.1875 l 2.54297,-3.16406 c 0.17578,-0.21875 0.14062,-0.53515 -0.0781,-0.71093 -0.21875,-0.17579 -0.53515,-0.14063 -0.71093,0.0781 z m -68.7461,96.91406 c -12.36328,2.00391 -29.72656,-3.23828 -29.89844,-3.28906 -0.26953,-0.0859 -0.55078,0.0664 -0.63281,0.33594 -0.082,0.26562 0.0703,0.55078 0.33594,0.63281 0.0664,0.0195 2.48047,0.74609 6.13281,1.5625 L 133.5,240.75 l -5.73047,-1.70703 c -0.26953,-0.0781 -0.55078,0.0742 -0.6289,0.34375 -0.0781,0.26562 0.0742,0.55078 0.33984,0.62891 l 6.41015,1.91015 c 0.0117,0.004 0.0234,0.004 0.0352,0.008 l 16.25,4.83594 c 0.0469,0.0156 0.0977,0.0234 0.14453,0.0234 0.21875,0 0.42188,-0.14453 0.48438,-0.36328 0.082,-0.26953 -0.0703,-0.55078 -0.33985,-0.62891 l -7.19922,-2.14453 0.8086,-18.55859 c 0.0117,-0.28125 -0.20703,-0.51563 -0.48438,-0.52735 -0.27734,-0.0234 -0.51953,0.20313 -0.52734,0.48438 l -0.79688,18.30469 -7.73046,-2.30079 -1.85938,-27.30468 c 6.30859,1.34375 15.64453,2.75781 23.19531,1.53906 0.27344,-0.0469 0.46094,-0.30469 0.41797,-0.58203 -0.043,-0.27735 -0.3125,-0.46094 -0.58203,-0.42188 z m 3.92969,134.0625 c -0.0742,-0.26953 -0.35156,-0.42968 -0.625,-0.35547 -0.26953,0.0742 -0.42578,0.35157 -0.35547,0.6211 0.043,0.14844 4.17969,14.91406 14.96094,22.80078 0.0898,0.0625 0.19531,0.0977 0.29687,0.0977 0.15625,0 0.3125,-0.0742 0.41016,-0.20704 0.16406,-0.22656 0.11719,-0.54687 -0.10938,-0.71093 -10.48828,-7.66797 -14.53906,-22.10157 -14.57812,-22.2461 z M 133.00781,95.671875 c 0.0195,0.0039 0.0391,0.0039 0.0586,0.0039 0.2539,0 0.47265,-0.191406 0.5039,-0.449218 l 1.01563,-8.808594 c 0.0312,-0.277344 -0.16797,-0.53125 -0.44532,-0.5625 -0.26953,-0.03516 -0.53125,0.167969 -0.5625,0.445312 l -1.01562,8.808594 c -0.0312,0.28125 0.16797,0.53125 0.44531,0.5625 z m 56.82813,106.417965 c -0.15625,-0.23046 -0.47266,-0.28906 -0.70313,-0.13281 -6.01562,4.10156 -16.57422,4.32031 -16.67968,4.32031 -0.28125,0.004 -0.50391,0.23438 -0.5,0.51563 0.008,0.27734 0.23046,0.5 0.50781,0.5 0.004,0 0.004,0 0.008,0 0.44531,-0.008 10.96484,-0.22266 17.23438,-4.5 0.23046,-0.15625 0.28906,-0.47266 0.13281,-0.70313 z m 3.14453,150.37891 c 0.0703,0.21484 0.26953,0.34766 0.48437,0.34766 0.0508,0 0.10547,-0.008 0.15625,-0.0234 0.26563,-0.0898 0.41016,-0.375 0.32422,-0.64063 l -14.30468,-43.41015 c -0.0859,-0.26563 -0.375,-0.41406 -0.64063,-0.32422 -0.26562,0.0859 -0.41016,0.375 -0.32031,0.64062 l 14.30078,43.41016 z m -11.23438,-53.41406 c 0.0859,0.1875 0.26954,0.29687 0.46094,0.29687 0.0703,0 0.14063,-0.0117 0.21094,-0.043 18.94922,-8.61718 34.61328,-31.03125 34.76953,-31.2539 0.16016,-0.23047 0.10156,-0.54688 -0.12891,-0.70703 -0.23046,-0.16016 -0.54296,-0.10157 -0.70312,0.1289 -0.15625,0.22266 -15.66406,22.41016 -34.35938,30.91016 -0.2539,0.11328 -0.36718,0.41406 -0.25,0.66797 z m 8.4375,-154.98438 c 0.0937,0.0781 0.21094,0.11719 0.32422,0.11719 0.14453,0 0.28907,-0.0625 0.39063,-0.18359 0.17969,-0.21485 0.14844,-0.53125 -0.0664,-0.71094 -0.13281,-0.11328 -13.54297,-11.36328 -16.5625,-17.07422 -7.52734,-14.24219 2.35547,-24.75 2.45313,-24.85547 0.19531,-0.19922 0.1875,-0.51953 -0.0117,-0.71484 -0.19922,-0.19141 -0.52344,-0.1875 -0.71485,0.0117 -0.10546,0.10937 -10.5,11.125 -2.625,26.03125 3.11329,5.88671 16.25391,16.91015 16.8125,17.3789 z m 23.83204,-21.5625 c 0.13281,0 0.26562,-0.0508 0.36718,-0.15625 l 3.44922,-3.61328 c 0.19531,-0.20312 0.1875,-0.52344 -0.0156,-0.71484 -0.20313,-0.19531 -0.52344,-0.1875 -0.71485,0.0156 l -3.45312,3.61328 c -0.19141,0.20313 -0.1836,0.52344 0.0156,0.71485 0.10157,0.0937 0.22657,0.14062 0.35157,0.14062 z m -60.75782,-24.546872 -13.39062,5.339842 c -0.25782,0.10547 -0.38672,0.39844 -0.28516,0.66016 0.082,0.19531 0.27344,0.3164 0.47266,0.3164 0.0625,0 0.125,-0.0117 0.1875,-0.0352 l 13.39062,-5.343752 c 0.26172,-0.101563 0.38672,-0.394532 0.28516,-0.65625 -0.10547,-0.261719 -0.40235,-0.390625 -0.66016,-0.28125 z m -26.97265,88.644532 c 0.34375,0.20312 8.40234,4.93359 11.8789,4.93359 3.44531,0 8.63672,-2.375 8.85547,-2.47656 0.25391,-0.11719 0.36328,-0.41797 0.25,-0.67187 -0.12109,-0.25391 -0.41797,-0.36719 -0.67578,-0.25 -0.0508,0.0234 -5.20313,2.38671 -8.42969,2.38671 -3.20312,0 -11.28125,-4.74609 -11.36328,-4.79296 -0.23828,-0.14063 -0.55078,-0.0625 -0.69141,0.17968 -0.14453,0.23828 -0.0625,0.55078 0.17579,0.69141 z m 23.14453,-53.01953 c 0.10547,-0.004 10.41015,-0.375 15.11328,1.67968 0.0664,0.0312 0.13281,0.043 0.20312,0.043 0.19532,0 0.37891,-0.11328 0.46485,-0.30468 0.10937,-0.25391 -0.008,-0.55469 -0.26172,-0.66407 -4.91406,-2.15234 -15.125,-1.78515 -15.5586,-1.76562 -0.27734,0.0117 -0.49609,0.24609 -0.48437,0.52734 0.008,0.27735 0.23047,0.51172 0.52344,0.48438 z m 14.47656,-78.761721 c -0.25781,0.105469 -0.38281,0.402344 -0.27734,0.660156 0.10546,0.257813 0.40234,0.382813 0.66015,0.277344 2.4336,-0.996094 3.95703,0.40625 4.01953,0.464844 0.0977,0.09375 0.22657,0.140625 0.35157,0.140625 0.13281,0 0.26562,-0.05078 0.36718,-0.152344 0.19141,-0.203125 0.1875,-0.523438 -0.0156,-0.71875 -0.082,-0.07813 -2.05078,-1.921875 -5.10547,-0.671875 z m -9.79297,0 c -0.25781,0.105469 -0.38281,0.402344 -0.27734,0.660156 0.10547,0.257813 0.40234,0.382813 0.66015,0.277344 2.42578,-0.996094 3.95703,0.40625 4.01953,0.464844 0.0977,0.09375 0.22657,0.140625 0.35157,0.140625 0.13281,0 0.26562,-0.05078 0.36718,-0.152344 0.19141,-0.203125 0.1875,-0.523438 -0.0156,-0.71875 -0.082,-0.07813 -2.04688,-1.925781 -5.10547,-0.671875 z m 4.88281,16.582031 c -0.27343,-0.07031 -0.54687,0.08984 -0.61718,0.363281 -0.0703,0.269532 0.0898,0.546875 0.35937,0.617188 0.45703,0.117187 0.91406,0.164062 1.34766,0.164062 1.46093,0 2.67578,-0.523437 2.73828,-0.550781 0.25781,-0.113281 0.375,-0.410156 0.26172,-0.667969 -0.11328,-0.253906 -0.41016,-0.371093 -0.66797,-0.261718 -0.0195,0.0078 -1.78125,0.765625 -3.42188,0.335937 z m 3.16016,-6.546875 c -0.25781,0.109375 -0.37891,0.40625 -0.27344,0.664063 0.082,0.195312 0.26953,0.3125 0.46875,0.3125 0.0625,0 0.12891,-0.01172 0.19531,-0.03906 0.30079,-0.125 1.83985,-0.808594 2.21485,-1.773437 0.34375,-0.886719 -1.07813,-3.96875 -1.95703,-5.730469 -0.125,-0.25 -0.4336,-0.347656 -0.67969,-0.226563 -0.25,0.125 -0.35156,0.429688 -0.22656,0.679688 0.99609,1.992187 2.0039,4.453125 1.91797,4.910156 -0.16016,0.417969 -1.07032,0.957031 -1.66016,1.203125 z m 3.13672,-5.664062 c 0,0.496093 0.39844,0.898437 0.89453,0.898437 0.49219,0 0.89453,-0.402344 0.89453,-0.898437 0,-0.492188 -0.40234,-0.894532 -0.89453,-0.894532 -0.49609,0 -0.89453,0.402344 -0.89453,0.894532 z m -10.08203,0 c 0,0.496093 0.40234,0.898437 0.89453,0.898437 0.49609,0 0.89844,-0.402344 0.89844,-0.898437 0,-0.492188 -0.40235,-0.894532 -0.89844,-0.894532 -0.49219,0 -0.89453,0.402344 -0.89453,0.894532 z M 44.300781,437.4375 h 33.992188 c 2.910156,0 5.265625,-2.35937 5.265625,-5.26953 0,-2.91016 -2.355469,-5.26953 -5.265625,-5.26953 H 44.300781 c -2.910156,0 -5.269531,2.35937 -5.269531,5.26953 0,2.91016 2.359375,5.26953 5.269531,5.26953 z M 140.03906,60.421875 c 0,0 -0.92578,-3.675781 2.09375,-5.304687 l 3.92578,12.554687 3.00782,-0.808594 -3.00782,-12.265625 c 0,0 3.33203,-4 2.29297,-7.890625 0,0 11.45703,-1.78125 17.09766,0 0,0 3.88281,-10.511718 -6.25,-10.78125 l 0.8125,1.953125 c 0,0 -2.70703,-2.359375 -9.25781,-0.601562 -6.54688,1.757812 -13.16797,6.214844 -13.16797,6.214844 l 2.2539,0.820312 c 0,0 -8.83203,9.667969 0.19922,16.109375 z m 190.8125,26.347656 -9.52343,-2.808593 c -0.26954,-0.07813 -0.55079,0.07422 -0.62891,0.34375 -0.0781,0.269531 0.0742,0.550781 0.34375,0.628906 l 9.52344,2.804687 c 0.0469,0.01563 0.0937,0.02344 0.14062,0.02344 0.21875,0 0.42188,-0.144531 0.48828,-0.363281 0.0781,-0.269532 -0.0742,-0.550782 -0.34375,-0.628907 z m 4.11328,-2.132812 -15.9375,-4.699219 c -0.26953,-0.07813 -0.54687,0.07813 -0.6289,0.34375 -0.0781,0.269531 0.0742,0.550781 0.34375,0.628906 l 15.9375,4.695313 c 0.0469,0.01563 0.0937,0.02344 0.14453,0.02344 0.21484,0 0.41797,-0.144531 0.48437,-0.363281 0.0781,-0.269531 -0.0742,-0.550781 -0.34375,-0.628906 z M 102.91797,407.80859 95.871094,407.62891 c 0,0 0,0 -2.601563,-3.9375 -2.601562,-3.9375 -9.710937,-2.63672 -9.710937,-2.63672 0,0 -3.6875,1.25781 -6.777344,2.41015 -3.09375,1.15235 -14.039062,3.25391 -20.066406,5.25782 C 50.6875,410.73047 49.5,414.56641 49.5,414.56641 h 54.58984 z m 115.36719,65.72657 c 0,0 -0.19922,4.45703 -3.03907,6.6875 -2.17968,1.71484 -9.03906,11.9414 -12.08593,16.57031 -0.95703,1.44922 -2.51953,2.37891 -4.25,2.52734 -5.9961,0.50391 -19.81641,1.44141 -21.55469,-0.45703 -2.23047,-2.42969 14.58984,-12.76562 14.58984,-12.76562 l 5.26563,-19.01563 c 7.29687,1.85547 15.875,-3.74219 15.875,-3.74219 5.9414,3.78516 5.19922,10.19532 5.19922,10.19532" />
        </g>
      </g>
    </g>
    <g
       transform="matrix(0.08466666,0,0,0.08466666,-6.299126,-5.9532875)"
       id="g3779">
      <g
         clip-path="url(#clipPath3785)"
         id="g3781">
        <g
           transform="matrix(1.247978,0,0,1.2455162,74.445694,71.875)"
           id="g3787">
          <path
             inkscape:connector-curvature="0"
             id="path3789"
             style="fill:#e9eaf7;fill-opacity:1;fill-rule:nonzero;stroke:none"
             d="m 92.28125,66.152344 c 2.640625,-0.519531 4.078125,-3.015625 4.777344,-4.796875 0.339844,-0.863281 -0.351563,-1.773438 -1.273438,-1.703125 l -10.121093,0.800781 c -0.9375,0.07422 -1.476563,1.113281 -0.972657,1.910156 1.203125,1.902344 3.640625,4.570313 7.589844,3.789063 z m 141.39453,1.304687 c -2.16797,-2.171875 -18.80859,-13.382812 -22.0625,-13.019531 -3.2539,0.359375 -23.87109,35.804688 -27.85156,36.53125 -3.97656,0.722656 -42.78125,4.472656 -42.78125,4.472656 L 122.72656,84.390625 c 0,0 -3.65625,-1.597656 -8.3164,-1.597656 -5.00782,-1.425781 -10.62891,-3.730469 -15.324222,-4.121094 -1.394532,-0.117187 -5.75,1.863281 -7.90625,1.957031 0.01563,1.730469 2.722656,4.460938 4.96875,6.113282 l 4.890622,-0.06641 -0.42969,12.964844 c 0,0 -0.53515,17.722658 -0.53515,19.894538 0,2.17187 19.53515,69.90234 19.53515,69.90234 0,0 -3.76171,17.36328 -3.76171,19.89453 0,2.53125 10.39453,74.20313 10.39453,74.20313 l 0.17969,40.6875 27.32031,-0.20703 c 0,0 -0.36328,-51.11329 -1.8086,-63.77344 -1.44922,-12.65625 -9.04297,-66.55078 -13.02343,-71.01953 -3.97657,-4.46875 -1.44532,-43.27735 -1.44532,-47.25391 0,-3.98047 56.71094,-18.03516 60.69141,-20.20703 3.97656,-2.16797 37.69141,-52.132817 35.51953,-54.304692 z M 100.96875,145.52344 c 1.44531,6.51172 13.44531,177.25 13.08594,179.05859 -0.36328,1.8086 -42.058596,-3.21094 -46.035159,-2.84765 -3.980468,0.35937 -15.917968,-3.25391 -21.34375,-3.98047 -5.421875,-0.72266 -3.613281,-96.9375 -5.785156,-96.9375 -2.171875,0 -37.617187,-26.76172 -40.14843702,-32.1875 C -1.789062,183.20313 2.914062,175.24219 3.636719,170.17969 c 0.722656,-5.0625 21.339844,-59.32032 27.125,-65.82813 3.011719,-3.38672 7.199219,-4.718747 11.488281,-5.777341 3.957031,-0.976563 6.757813,-3.207031 10.054688,-5.117188 6.875,-3.980468 7.53125,-11.472656 7.53125,-11.472656 0,0 5.375,1.3125 9.667968,0.753906 0.265625,0.898438 0.539063,1.671875 0.820313,2.261719 0.328125,0.691406 0.996094,1.839844 1.890625,3.292969 L 80,109.49609 c 0,0 19.523438,29.51953 20.96875,36.02735" />
          <path
             inkscape:connector-curvature="0"
             id="path3791"
             style="fill:#15253d;fill-opacity:1;fill-rule:nonzero;stroke:none"
             d="m 69.585938,344.12109 c -0.105469,-0.28515 -0.378907,-0.48046 -0.683594,-0.48046 -0.08594,0 -0.167969,0.0156 -0.246094,0.043 -0.179687,0.0625 -0.324219,0.19532 -0.410156,0.3711 -0.08203,0.17578 -0.08984,0.375 -0.02734,0.55469 0.152344,0.42578 3.78125,10.46484 7.210938,13.66796 0.136718,0.125 0.308593,0.19532 0.492187,0.19532 0.203125,0 0.394531,-0.082 0.53125,-0.23047 0.132813,-0.14063 0.203125,-0.32422 0.195313,-0.51563 -0.0078,-0.19531 -0.08984,-0.375 -0.230469,-0.50781 -3.152344,-2.94531 -6.796875,-12.99609 -6.832031,-13.09766 z m 46.226562,1.875 c -0.12109,-0.082 -0.26172,-0.125 -0.41016,-0.125 -0.23828,0 -0.46093,0.11719 -0.59765,0.31641 l -7.58594,11.15234 c -0.22266,0.33204 -0.13672,0.78125 0.19531,1.00782 0.11719,0.082 0.26172,0.125 0.40625,0.125 0.24219,0 0.46485,-0.11719 0.60157,-0.31641 l 7.58203,-11.15234 c 0.22265,-0.32813 0.13672,-0.78125 -0.19141,-1.00782 z M 92.667969,66.996094 c 3.339844,-0.660156 5.15625,-3.816406 6.039062,-6.070313 0.429688,-1.085937 -0.445312,-2.242187 -1.609375,-2.148437 l -12.796875,1.007812 c -1.183593,0.09766 -1.867187,1.410157 -1.234375,2.414063 1.523438,2.410156 4.609375,5.78125 9.601563,4.796875 z M 84.839844,473.97656 c -0.574219,-0.40234 -5.175781,-1.48437 -16.523438,0.0274 0,0 -6.742187,8.20703 -8.527343,10.58593 -1.785157,2.37891 0.597656,12.64063 5.503906,13.23438 4.90625,0.59375 18.4375,-5.65234 20.667969,-10.85547 2.230468,-5.20312 4.460937,-15.16797 4.460937,-15.16797 l -0.882812,-4.16406 c 0,0 -4.128907,6.73828 -4.699219,6.33984 z M 208.80859,57.019531 c -0.25781,-0.171875 -0.60156,-0.113281 -0.77734,0.140625 -0.17578,0.253907 -0.11328,0.601563 0.14063,0.777344 l 22.91406,15.871094 c 0.0977,0.06641 0.21094,0.09766 0.3164,0.09766 0.17969,0 0.35157,-0.08203 0.46094,-0.238281 0.17578,-0.253906 0.11328,-0.601563 -0.14062,-0.777344 z M 53.617188,224.77734 c -0.128907,-0.27343 -0.457032,-0.39843 -0.738282,-0.26562 l -15.964843,7.42187 c -0.277344,0.12891 -0.398438,0.46094 -0.269532,0.74219 0.09375,0.19922 0.296875,0.32031 0.503907,0.32031 0.07813,0 0.160156,-0.0156 0.234375,-0.0547 l 15.964843,-7.42188 c 0.28125,-0.1289 0.402344,-0.46094 0.269532,-0.74219 z M 50.65625,195.86328 c 0.167969,0 0.332031,-0.0742 0.441406,-0.21875 0.1875,-0.24609 0.144532,-0.59375 -0.101562,-0.78125 L 30.640625,179.25781 c 2.457031,-3.48437 17.617188,-25.32031 19.292969,-35.99609 1.777344,-11.33594 -0.871094,-26.57422 -0.898438,-26.72656 -0.05469,-0.30469 -0.34375,-0.50391 -0.644531,-0.45313 -0.304687,0.0547 -0.507812,0.34375 -0.453125,0.64844 0.02734,0.15234 2.644531,15.20312 0.894531,26.35937 -1.613281,10.26172 -16.636718,32.00782 -19.078125,35.48438 L 28.53125,177.64063 C 28.285156,177.44922 27.9375,177.5 27.75,177.74219 c -0.167969,0.21875 -0.148437,0.51562 0.02734,0.71094 -3.648438,-0.23438 -6.328125,1.41796 -6.460938,1.5 -0.261718,0.16406 -0.339843,0.50781 -0.175781,0.76562 0.160156,0.26172 0.507813,0.34375 0.765625,0.17969 0.02734,-0.0156 1.8125,-1.10938 4.375,-1.3125 -2.34375,1.08594 -3.230469,2.94922 -3.28125,3.05859 -0.128906,0.28125 -0.0078,0.60938 0.273438,0.73828 0.28125,0.12891 0.613281,0.008 0.742187,-0.27343 0.01172,-0.0312 1.441406,-3.03125 5.675781,-3.17579 l 20.625,15.8125 c 0.101563,0.082 0.222657,0.11719 0.339844,0.11719 z M 92.800781,206.73047 84,151.5625 c -0.04687,-0.30469 -0.332031,-0.50391 -0.636719,-0.46094 -0.304687,0.0469 -0.511718,0.33203 -0.464843,0.63672 l 8.738281,54.75 -15.28125,7.10547 c -0.277344,0.12891 -0.398438,0.46094 -0.269531,0.74219 0.09375,0.19922 0.296875,0.32031 0.507812,0.32031 0.07813,0 0.160156,-0.0156 0.234375,-0.0508 l 15.660156,-7.28125 c 0.226563,-0.10547 0.355469,-0.34766 0.3125,-0.59375 z m 38.621089,283.38672 c 0.16016,-0.26172 0.0781,-0.60547 -0.18359,-0.76563 -0.043,-0.0273 -0.30469,-0.18359 -0.70703,-0.40625 -2.83594,-5.90625 -7.24219,-12.09765 -7.24219,-12.09765 0,0 -10.61328,-4.91016 -17.75,-0.004 l -9.308591,-10.79297 v 7.90625 c 0,0 9.222661,15.61328 14.199221,19.62891 4.97265,4.01562 15.23437,8.25 21.03515,5.57422 2.28516,-1.05469 1.49219,-4.7461 -0.30078,-8.83203 0.10156,-0.0469 0.19531,-0.10938 0.25781,-0.21094 z M 184.52344,89.855469 c -0.14063,0.121094 -3.48828,2.96875 -3.80078,6.429687 -0.0273,0.304688 0.19922,0.574219 0.5039,0.605469 0.0156,0 0.0352,0.0039 0.0508,0.0039 0.28516,0 0.52735,-0.21875 0.55469,-0.507812 0.27344,-3 3.37891,-5.652344 3.41016,-5.679688 0.23437,-0.199218 0.26562,-0.550781 0.0664,-0.785156 -0.19921,-0.234375 -0.54687,-0.269531 -0.78515,-0.06641 z M 152.28516,262.16016 138.32031,259.0625 c -0.30469,-0.0664 -0.59765,0.125 -0.66406,0.42188 -0.0664,0.30078 0.12109,0.60156 0.42187,0.66796 l 13.96485,3.09375 c 0.043,0.0117 0.082,0.0156 0.12109,0.0156 0.25781,0 0.48828,-0.17578 0.54688,-0.4375 0.0625,-0.30078 -0.125,-0.59766 -0.42578,-0.66406 z M 51.0625,266.83984 c 0.04687,0.26954 0.28125,0.46094 0.546875,0.46094 0.03125,0 0.0625,0 0.09766,-0.008 12.960938,-2.21484 32.5,-5.48047 34.324219,-5.58984 0.152344,0.043 0.320313,0.0234 0.460938,-0.0703 0.21875,-0.14843 0.316406,-0.4414 0.21875,-0.68359 -0.226563,-0.5625 -0.289063,-0.71875 -35.191407,5.24609 -0.304687,0.0508 -0.507812,0.33985 -0.457031,0.64453 z M 229.44922,30.394531 c 0.0586,0.01563 0.11328,0.02734 0.16797,0.02734 0.23828,0 0.45703,-0.15625 0.53125,-0.394531 0.68359,-2.214844 2.91406,-9.507813 2.91406,-10.308594 0,-0.878906 -1.03516,-2.863281 -1.24609,-3.253906 -0.14453,-0.273438 -0.47657,-0.375 -0.75391,-0.230469 -0.26953,0.148437 -0.375,0.484375 -0.22656,0.757813 0.53125,1 1.10937,2.328125 1.10937,2.71875 -0.0352,0.625 -1.77343,6.457031 -2.86328,9.984375 -0.0898,0.296875 0.0742,0.609375 0.36719,0.699218 z M 61.921875,92.097656 c -0.3125,-0.02344 -0.578125,0.199219 -0.605469,0.507813 -0.105468,1.160156 -2.59375,28.484371 -2.582031,30.277341 0.0078,0.97656 5.28125,4.64063 11.859375,8.83594 l -3.355469,15.12891 c -0.05078,0.22265 0.04297,0.45312 0.230469,0.58203 l 6.914063,4.68359 c 0.09766,0.0664 0.207031,0.0937 0.3125,0.0937 0.179687,0 0.355468,-0.0859 0.464843,-0.24219 0.171875,-0.25781 0.105469,-0.60547 -0.152343,-0.77734 l -6.597657,-4.46875 3.183594,-14.36328 c 5.492188,3.47266 11.726563,7.23437 16.535156,10.08984 0.265625,0.16016 0.605469,0.0742 0.765625,-0.1914 0.15625,-0.26563 0.07031,-0.60938 -0.195312,-0.76563 C 83.632813,138.47656 77.101563,134.5 71.53125,130.96875 c -0.0039,0 -0.0078,-0.004 -0.01172,-0.008 -6.15625,-3.90235 -11.136718,-7.26172 -11.667968,-8.16016 0.04687,-2.33594 2.550781,-29.816405 2.574218,-30.097655 0.02734,-0.304687 -0.199218,-0.574219 -0.503906,-0.605469 z m 47.371095,2.121094 c -0.21875,-0.21875 -0.57031,-0.21875 -0.78906,0 -0.21485,0.21875 -0.21485,0.570313 0.004,0.789063 3.66016,3.652343 9.5586,9.648437 10.23438,10.609377 0.0547,1.83203 -4.96875,20.63672 -8.1875,32.20312 -0.082,0.29688 0.0898,0.60547 0.38672,0.6875 0.29687,0.082 0.60547,-0.0898 0.6875,-0.39062 1.33593,-4.80078 2.74218,-9.92969 4.00781,-14.67969 l 9.89453,14.67187 -4.14062,35.92969 c -0.0352,0.3086 0.18359,0.58203 0.49218,0.6211 0.0195,0 0.043,0 0.0625,0 0.28125,0 0.52344,-0.20703 0.55469,-0.49219 l 4.16406,-36.13281 c 0.0156,-0.13282 -0.0156,-0.26563 -0.0937,-0.37891 l -10.55468,-15.65234 c 2.35937,-8.9375 4.10937,-16.22266 3.73828,-16.875 -0.61328,-1.07422 -9.45313,-9.906254 -10.46094,-10.91016 z m 30.08984,26.66406 c 0.21875,9.625 -2.43359,20.84375 -2.46094,20.95703 -0.0703,0.29688 0.11329,0.59766 0.41407,0.67188 0.043,0.008 0.0859,0.0117 0.1289,0.0117 0.25391,0 0.48047,-0.16797 0.54297,-0.42578 0.0273,-0.11329 2.71094,-11.46485 2.48828,-21.24219 -0.22265,-9.89844 -13.40625,-25.132814 -13.96484,-25.781251 -0.20312,-0.230469 -0.55859,-0.257813 -0.78906,-0.05078 -0.23047,0.203125 -0.25391,0.550781 -0.0508,0.785156 0.13281,0.15625 13.47265,15.574215 13.6914,25.074215 z M 57.320313,226.15234 c -0.08203,0.29688 0.09375,0.60547 0.390625,0.6836 l 3.519531,0.94922 c 0.04687,0.0117 0.09766,0.0195 0.144531,0.0195 0.246094,0 0.46875,-0.16406 0.539063,-0.41406 0.07813,-0.29688 -0.09766,-0.60157 -0.394532,-0.6836 l -3.515625,-0.94531 c -0.300781,-0.082 -0.605468,0.0937 -0.683593,0.39062 z m 74.558597,-45.59375 c -0.23438,0.20313 -0.25782,0.55469 -0.0586,0.78907 l 5.95703,6.89843 c 0.10938,0.125 0.26563,0.19141 0.42188,0.19141 0.12891,0 0.26172,-0.043 0.36328,-0.13281 0.23437,-0.20313 0.26172,-0.55469 0.0586,-0.78906 l -5.95703,-6.89844 c -0.19922,-0.23438 -0.55469,-0.25781 -0.78515,-0.0586 z m -69.625004,44.50782 c -0.28125,-0.10547 -0.609375,0.0352 -0.71875,0.32422 -0.109375,0.28906 0.03516,0.60937 0.324219,0.71875 l 5.027344,1.90625 c 0.06641,0.0234 0.132812,0.0391 0.199219,0.0391 0.222656,0 0.4375,-0.14063 0.519531,-0.36328 0.109375,-0.28907 -0.03516,-0.60938 -0.324219,-0.71875 l -5.027344,-1.90625 z m 8.429688,-7.17188 c 0.101562,0 0.207031,-0.0273 0.300781,-0.0859 0.257813,-0.16796 0.332031,-0.51171 0.167969,-0.77343 l -3.308594,-5.1211 c -0.167969,-0.25781 -0.515625,-0.33203 -0.773437,-0.16406 -0.257813,0.16797 -0.332032,0.51172 -0.164063,0.76953 l 3.308594,5.1211 c 0.105469,0.16406 0.285156,0.2539 0.46875,0.2539 z m 0.238281,8.25 c 0.183594,0 0.363281,-0.0898 0.46875,-0.25781 0.164063,-0.25781 0.08984,-0.60156 -0.167969,-0.76953 l -4.886718,-3.1211 c -0.261719,-0.16406 -0.605469,-0.0898 -0.769532,0.17188 -0.167968,0.26172 -0.08984,0.60547 0.167969,0.76953 l 4.886719,3.12109 c 0.09375,0.0586 0.195312,0.0859 0.300781,0.0859 z m 63.320315,48.44141 c -0.15235,-0.76953 -0.31641,-1.57813 -0.48438,-2.42188 -0.0859,-0.42187 -0.17187,-0.85156 -0.26172,-1.29297 -0.26172,-1.3164 -0.54297,-2.71093 -0.83593,-4.16796 -0.28907,-1.45313 -0.59375,-2.96875 -0.90625,-4.52735 -1.14454,-5.72656 -2.41016,-12.07031 -3.64844,-18.32422 -0.11328,-0.5664 -0.22266,-1.13672 -0.33594,-1.70312 -0.67187,-3.39844 -1.33203,-6.75 -1.95703,-9.9375 -0.20703,-1.0625 -0.41016,-2.10938 -0.61328,-3.13281 -0.19531,-1.01954 -0.39063,-2.01954 -0.58203,-2.99219 -0.84766,-4.38281 -1.58203,-8.22266 -2.11719,-11.13281 -0.17969,-0.96875 -0.33594,-1.83594 -0.46875,-2.58204 -0.26953,-1.52734 -0.4375,-2.5625 -0.47266,-2.98437 -0.004,-0.0586 -0.008,-0.10938 -0.008,-0.14453 0,-0.47266 0.0781,-1.47266 0.19922,-2.78516 0.0195,-0.21875 0.043,-0.44531 0.0664,-0.68359 0.0469,-0.46875 0.0977,-0.96875 0.15234,-1.49219 0.082,-0.78906 0.17188,-1.625 0.26953,-2.48437 0.0312,-0.28907 0.0625,-0.57813 0.0977,-0.86719 0.61719,-5.54297 1.38281,-11.70703 1.38281,-11.70703 0,0 -0.0195,-0.0781 -0.0625,-0.22266 -0.008,-0.0391 -0.0156,-0.0664 -0.0312,-0.11328 -2.20312,0.73828 -4.93359,1.61719 -8.08594,2.56641 l -13.91015,3.85156 c 0,0.004 0,0.004 0,0.004 3.28515,52.1836 7.5,127.03516 7.26172,128.23438 -0.36329,1.80859 -36.894536,-2.17188 -40.871099,-1.80859 -3.585937,0.32421 -13.609375,-2.57032 -19.535156,-3.67969 v 1.10547 c 0,0 0.03516,0.008 0.08594,0.0156 l -0.08594,2.10547 c 0,0 4.417969,0.76172 10.8125,1.77344 8.828125,1.39062 20.34375,11.29687 31.371094,4.24609 2.082031,0.20703 4.046875,0.375 5.835937,0.49219 13.066404,10.5 25.964844,-0.41016 32.875004,-1.13672 2.67968,-0.28125 4.28906,-0.49219 4.28906,-0.49219 l 1.17969,-2.14843 h -3.53125 l 4.70312,-40.6211 c 0,0 -0.69531,-3.42969 -1.77734,-8.80859 z M 31.425781,78.992188 c 3.234375,-3.625 4.238282,-5.296875 3.011719,-9.425782 -1.226562,-4.125 1.226563,-11.152343 8.476563,-15.613281 7.246093,-4.460937 4.238281,-9.589844 4.792968,-12.710937 0.558594,-3.125 2.121094,-3.679688 7.363282,-5.800782 5.238281,-2.117187 2.898437,-8.03125 7.582031,-11.375 4.683594,-3.34375 9.34375,0 9.34375,0 0,0 4.734375,-3.839843 7.660156,-1.5 5.636719,4.511719 3.855469,-1.234375 10.765625,0.609375 6.691406,1.785157 7.25,12.933594 9.925785,17.285157 2.67578,4.351562 6.13281,3.234375 8.55468,12.601562 2.41797,9.371094 1.92969,12.15625 5.94532,16.285156 2.5039,2.574219 2.35937,8.980469 -0.52344,13.480469 -5.20703,-0.917969 -11.74609,-1.972656 -16.285157,-2.347656 -1.394532,-0.117188 -4.703125,0.05469 -6.859375,0.148437 0.01563,1.730469 2.722656,4.460938 4.96875,6.113282 l 4.890622,-0.06641 0.53907,1.605469 c -5.964849,1.734375 -7.539067,6.742188 -10.398442,12.515633 -0.4375,0.88671 -1.105469,1.51953 -1.933594,1.97265 1.386719,0.082 2.667969,-0.64844 3.746094,-0.79687 4.953125,-0.69141 7.140622,-9.144538 7.171872,-9.234382 0.0977,-0.289062 1.9961,-1.570312 1.88282,-0.625 -0.0391,0.304688 0.72265,1.050782 0.62499,1.34375 -0.13281,0.394532 -2.882807,10.328132 -8.51562,11.113282 -0.695312,0.0937 -2.308594,0.26953 -3.132812,0.26953 -1.480469,0 -3.140625,0.10938 -4.75,-0.0898 -3.003907,0.23047 -7.003907,-1.73828 -10.941407,-2.86328 L 72.214844,88.292969 C 71.320313,86.839844 70.652344,85.691406 70.324219,85 c -0.28125,-0.589844 -0.554688,-1.363281 -0.820313,-2.261719 -4.292968,0.558594 -7.273437,0.996094 -7.273437,0.996094 0,0 -1.808594,7.234375 -8.679688,11.210938 -3.449218,1.996093 -7.714843,2.71875 -11.84375,3.765625 C 38.0625,96.433594 37.261719,94.0625 33.320313,93.101563 28.75,91.984375 28.191406,82.617188 31.425781,78.992188" />
          <path
             inkscape:connector-curvature="0"
             id="path3793"
             style="fill:#bb8ece;fill-opacity:1;fill-rule:nonzero;stroke:none"
             d="m 91.636719,206.48828 -15.28125,7.10547 c -0.03516,0.0156 -0.05859,0.0469 -0.08984,0.0664 -2.355469,-3.125 -5.171875,-6.38282 -5.804687,-7.36328 -1.230469,-1.89454 -5.699219,-0.78125 -5.699219,-0.78125 l -14.769531,-9.11329 0.386718,-0.63281 c 0.08594,0.0508 0.179688,0.0937 0.277344,0.0937 0.167969,0 0.332031,-0.0742 0.441406,-0.21875 0.1875,-0.24609 0.144532,-0.59375 -0.101562,-0.78125 L 30.640625,179.25781 c 0.324219,-0.46093 0.878906,-1.2539 1.59375,-2.29687 l 50.691406,-25.05078 z m -1.941406,-52.01562 9.214843,54.32812 -19.800781,9.14453 c -0.496094,-0.96875 -1.277344,-2.14843 -2.179687,-3.38672 l 15.558593,-7.23437 c 0.226563,-0.10547 0.355469,-0.34766 0.3125,-0.59375 l -8.742187,-54.80469 z m -36.347657,71.04687 -15.964843,7.42188 c -0.07422,0.0391 -0.15625,0.0547 -0.234375,0.0547 -0.207032,0 -0.410157,-0.12109 -0.503907,-0.32031 -0.128906,-0.28125 -0.0078,-0.61328 0.269532,-0.74219 l 15.964843,-7.42187 c 0.28125,-0.13281 0.609375,-0.008 0.738282,0.26562 0.132812,0.28125 0.01172,0.61329 -0.269532,0.74219 z m -1.960937,-11.86328 c -0.667969,-2.67578 -8.902344,-2.22266 -8.902344,-2.22266 l -1.972656,9.26954 v 0.004 l -0.01953,-0.0117 -5.875,-3.7539 -0.03125,-0.0156 1.773437,16.1875 5.085938,2.22656 0.484375,-0.22265 15.347656,-7.08985 c -0.988281,0.0117 -1.652344,-0.20312 -1.652344,-0.20312 0,0 -3.566406,-11.48828 -4.238281,-14.16797 z m 19.773437,3.95703 c 0.800782,0.45703 2.5,1.38672 4.195313,2.06641 l -2.335938,1.07812 -2.023437,-2.96093 c 0.07031,-0.0508 0.121094,-0.10938 0.164062,-0.1836 z m -25.898437,-13.3789 -1.601563,2.64843 -1.175781,4.55078 0.855469,-4.01953 z m 78.433591,-14.82813 c -0.0117,0.11328 -0.0312,0.26953 -0.0586,0.48828 0.0273,-0.21094 0.0469,-0.375 0.0586,-0.48828 z M 102.10156,93.3125 c -0.1289,0.398438 -3.292966,9.70703 -8.925779,10.48828 -0.699218,0.0977 -1.476562,0.14063 -2.304687,0.14063 -5.574219,0 -13.367188,-1.91797 -13.742188,-2.00782 -0.300781,-0.0781 -0.480468,-0.3789 -0.410156,-0.67578 0.07813,-0.30078 0.378906,-0.48437 0.679688,-0.41015 0.101562,0.0273 10.445312,2.57031 15.625,1.84765 4.949218,-0.6875 7.992192,-9.644529 8.023442,-9.734372 0.0977,-0.289063 0.41015,-0.449219 0.70312,-0.351563 0.29297,0.09766 0.44922,0.414063 0.35156,0.703125 z m 2.44922,25.14453 c 0,-2.17187 0.72266,-19.171874 0.72266,-19.171874 l -3.69531,-11.003906 -0.53907,-1.605469 c 0,0 -6.19531,8.65625 -13.332029,9.621094 -3.109375,0.417969 -7.132812,2.296875 -13.414062,1.054688 l 1.039062,4.535157 1.730469,7.52734 c 0,0 19.53125,30.02344 20.976563,36.53125 0.488281,2.19531 1.917968,22.85938 3.589847,49.36328 0,0 0,0 0,-0.004 l 13.91015,-3.85156 c 3.15235,-0.94922 5.88282,-1.82813 8.08594,-2.56641 0.0156,0.0469 0.0234,0.0742 0.0312,0.11328 -1.17969,-4.22656 -19.10547,-68.44531 -19.10547,-70.54297" />
        </g>
      </g>
    </g>
    <g
       transform="matrix(0.08466666,0,0,0.08466666,-6.299126,-5.9532875)"
       id="g3795">
      <g
         clip-path="url(#clipPath3801)"
         id="g3797">
        <g
           transform="matrix(1.247978,0,0,1.2455162,74.445694,71.875)"
           id="g3803">
          <path
             inkscape:connector-curvature="0"
             id="path3805"
             style="fill:#a73c28;fill-opacity:1;fill-rule:nonzero;stroke:none"
             d="m 82.878906,53.242188 c 0.183594,0.585937 0.804688,0.90625 1.390625,0.722656 0.582032,-0.183594 0.902344,-0.808594 0.71875,-1.390625 -0.183593,-0.582031 -0.808593,-0.90625 -1.390625,-0.71875 -0.582031,0.183594 -0.90625,0.804687 -0.71875,1.386719 z m 3.894532,9.328125 c 0.796875,1.253906 2.40625,3.015625 5.011718,2.5 1.742188,-0.339844 2.691407,-1.992188 3.152344,-3.167969 0.222656,-0.566406 -0.234375,-1.167969 -0.839844,-1.121094 l -6.679687,0.527344 c -0.617188,0.05078 -0.972656,0.738281 -0.644531,1.261719 z m 2.40625,-11.53125 c 2.164062,1.773437 4.554687,4.058593 4.671875,4.625 0.02734,0.574218 -0.734375,1.660156 -1.289063,2.246093 -0.210937,0.226563 -0.199219,0.578125 0.02734,0.789063 0.105469,0.101562 0.242187,0.152344 0.378906,0.152344 0.148438,0 0.296875,-0.05859 0.40625,-0.175782 0.171875,-0.179687 1.652344,-1.792968 1.589844,-3.070312 -0.05859,-1.148438 -3.207031,-3.894531 -5.078125,-5.429688 -0.238281,-0.195312 -0.589844,-0.160156 -0.785156,0.07813 -0.195313,0.238282 -0.160157,0.589844 0.07813,0.785157 z m 0.308593,-4.558594 c 0.109375,0.105469 0.246094,0.15625 0.386719,0.15625 0.148438,0 0.292969,-0.05859 0.402344,-0.171875 2.273437,-2.382813 4.742187,-1.558594 4.847656,-1.519531 0.285156,0.09766 0.609375,-0.04687 0.710938,-0.335938 C 95.941406,44.320313 95.792969,44 95.503906,43.894531 c -0.132812,-0.04297 -3.242187,-1.125 -6.03125,1.800782 -0.214843,0.222656 -0.207031,0.574218 0.01563,0.785156 z m 5.992188,1.605469 c -0.582031,0.183593 -0.90625,0.808593 -0.71875,1.390625 0.183594,0.582031 0.804687,0.90625 1.390625,0.71875 0.582031,-0.183594 0.902344,-0.804688 0.71875,-1.386719 -0.183594,-0.585938 -0.804688,-0.90625 -1.390625,-0.722656 z m 1.304687,16.667968 c -0.230468,-0.207031 -0.582031,-0.191406 -0.789062,0.03516 -0.01563,0.01953 -1.628906,1.777343 -3.730469,2.128906 -0.304687,0.05078 -0.511719,0.335937 -0.460937,0.640625 0.04687,0.269531 0.28125,0.464844 0.550781,0.464844 0.02734,0 0.05859,0 0.08984,-0.0078 2.480468,-0.410156 4.300781,-2.394531 4.378906,-2.476562 0.207031,-0.226563 0.1875,-0.582032 -0.03906,-0.785157 z m -37.8125,1.929688 c -0.671875,-1.714844 -0.484375,-3.539063 0.355469,-5.078125 0.636719,-1.292969 5.59375,-1.726563 8.453125,-0.960938 1.804688,0.488282 2.398438,0.453125 2.832031,-0.605468 0.265625,-0.644532 0.46875,-1.667969 0.851563,-3.183594 0.898437,-3.601563 4.308594,-6.921875 8.0625,-7.167969 -0.371094,0.257813 -0.746094,0.570313 -1.113281,0.953125 -0.210938,0.222656 -0.203125,0.574219 0.01953,0.789063 0.109375,0.101562 0.246094,0.152343 0.386719,0.152343 0.144531,0 0.292968,-0.05859 0.402343,-0.171875 2.273438,-2.382812 4.742188,-1.554687 4.84375,-1.519531 0.289063,0.101563 0.609375,-0.04687 0.714844,-0.335937 0.105469,-0.289063 -0.04297,-0.609375 -0.335937,-0.714844 -0.03906,-0.01563 -0.386719,-0.132813 -0.929688,-0.195313 0.921875,-1.628906 0.511719,-4.808593 0.882813,-7.847656 0.449218,-3.679687 5.203125,-5.984375 7.046875,-6.746094 0.410156,0.351563 0.8125,0.722657 1.1875,1.132813 1.6875,1.839844 2.511718,6.679687 4.554687,11.410156 1.882813,4.363281 5.015631,8.539063 5.828131,12.386719 2.05078,9.71875 -0.043,16.429687 -7.445318,18.929687 -1.761719,0.59375 -3.480469,0.917969 -5.152344,1.027344 -10,8.632813 -18.964844,-2.476562 -20.335938,-9.890625 -0.355468,0.304688 -0.746093,0.574219 -1.171875,0.808594 C 68.53125,70.066406 68.128906,70.25 67.699219,70.394531 64.148438,71.59375 60.25,69.953125 58.972656,66.683594 Z M 115.71875,346.13672 c -0.25781,-0.17578 -0.60156,-0.10938 -0.77734,0.14453 l -7.58204,11.15234 c -0.17187,0.25391 -0.10546,0.60157 0.14844,0.77735 0.0937,0.0625 0.20313,0.0976 0.3125,0.0976 0.17578,0 0.35156,-0.0859 0.46094,-0.24609 l 7.58203,-11.15234 c 0.17578,-0.25391 0.10938,-0.60157 -0.14453,-0.77344 z m 7.1875,0.55469 c -0.63281,5.60547 -1.75,18.77343 -1.17578,24.5039 1.08203,10.78516 2.27734,22.53125 0.66016,33.66797 -3.34766,23.08985 -12.10938,44.73438 -12.59375,49.79688 -0.72657,7.5039 3.70703,9.85547 6.59765,14.375 2.17188,3.39453 5.92188,6.27734 6.89453,7.8125 0,0 -10.71093,-1.70313 -17.84765,3.20703 l -9.210941,-14.00391 c -0.179688,-2.98437 1.898437,-21.0664 1.085937,-25.67969 -0.8125,-4.60937 -4.25,-28.58984 -5.0625,-36.62109 -1.210937,-11.94922 1.964844,-22.37109 2.628907,-40.42578 0.664062,-18.05469 -0.875,-35.71875 -0.875,-35.71875 1.960937,0.42187 5.820312,0.51562 10.273437,0.44141 10.55859,-0.1836 24.48828,-1.33204 24.67969,-1.34766 0.004,0 0.0117,0 0.0117,0 0,0 -5.4336,14.38672 -6.06641,19.99219 z m -46.601562,10.64843 c -3.210938,-2.99609 -6.839844,-13.0625 -6.878907,-13.16015 -0.101562,-0.29297 -0.421875,-0.44141 -0.710937,-0.33985 -0.292969,0.10547 -0.441406,0.42579 -0.335938,0.71485 0.152344,0.42187 3.757813,10.42187 7.164063,13.60156 0.109375,0.10156 0.242187,0.15234 0.378906,0.15234 0.152344,0 0.300781,-0.0625 0.410156,-0.17968 0.207032,-0.22657 0.199219,-0.57813 -0.02734,-0.78907 z M 88.5,358.98828 c -1.222656,6.375 1.476563,33.57813 1.476563,38.46094 0,4.88672 -3.375,31.25781 -3.375,38.44531 0,7.19141 1.21875,14.51563 1.761718,17.76953 0.425782,2.5586 1.101563,9.38672 1.175782,13.97266 -0.0039,0.008 -3.859375,10.70703 -4.429688,10.30469 -0.07813,-0.0899 -0.1875,-0.17578 -0.3125,-0.25391 -1.304687,-1.09375 -6.261719,-5.04297 -16.480469,-3.68359 0.90625,-1.65625 1.875,-3.46485 2.414063,-4.60547 1.222656,-2.57813 1.355469,-8.41016 1.355469,-14.37891 0,-5.96484 -10.25,-39.78515 -12.445313,-51.99219 -2.191406,-12.20703 2.136719,-45.39453 3.222656,-54.07812 1.085938,-8.67969 -3.546875,-25.89453 -3.546875,-25.89453 l 31.703125,4.27734 0.02344,0.004 c 0,0 -1.324219,25.27734 -2.542969,31.65234 z M 59.933594,227.4375 57.710938,226.83594 c -0.296875,-0.0781 -0.472657,-0.38672 -0.390625,-0.6836 0.07813,-0.29687 0.382812,-0.47265 0.683593,-0.39062 l 3.515625,0.94531 c 0.28125,0.0781 0.449219,0.35547 0.394532,0.64063 0.964843,0.23437 1.988281,0.6914 3.972656,0.36328 0.04687,-0.008 0.08594,-0.0156 0.132812,-0.0234 l -4.160156,-1.57812 C 61.570313,226 61.425781,225.67969 61.535156,225.39063 c 0.109375,-0.28907 0.4375,-0.42969 0.71875,-0.32422 l 5.027344,1.90625 c 0.183594,0.0703 0.300781,0.22656 0.339844,0.40625 1.375,-0.33203 1.21875,-0.59375 2.503906,-1.45313 0.05078,-0.0352 0.101563,-0.0586 0.152344,-0.0859 l -4.542969,-2.90234 c -0.257812,-0.16406 -0.335937,-0.50781 -0.167969,-0.76953 0.164063,-0.26172 0.507813,-0.33594 0.769532,-0.17188 l 4.886718,3.1211 c 0.144532,0.0937 0.226563,0.24609 0.246094,0.41015 1.191406,-0.0117 2.300781,0.65625 3.117188,-0.16015 1.113281,-1.11328 0.691406,-4.51563 0.691406,-4.51563 l -1.695313,0.72657 -0.5625,-0.82032 -2.023437,-2.96093 c -0.0039,0.004 -0.0078,0.008 -0.01172,0.0117 -0.09375,0.0586 -0.199219,0.0859 -0.300781,0.0859 -0.183594,0 -0.363281,-0.0898 -0.46875,-0.2539 l -3.308594,-5.1211 c -0.167969,-0.25781 -0.09375,-0.60156 0.164063,-0.76953 0.257812,-0.16797 0.605468,-0.0937 0.773437,0.16406 l 3.308594,5.1211 c 0.117187,0.18359 0.109375,0.40625 0.0078,0.57812 0.800782,0.45703 2.5,1.38672 4.195313,2.06641 1.746094,0.69531 3.464844,1.11719 4.136719,0.44922 0.351562,-0.35157 0.148437,-1.14453 -0.382813,-2.1836 -0.496094,-0.96875 -1.277344,-2.14843 -2.179687,-3.38672 l -0.101563,0.0469 c -0.07422,0.0352 -0.15625,0.0508 -0.234375,0.0508 -0.210937,0 -0.414062,-0.12109 -0.507812,-0.32031 -0.113282,-0.2461 -0.02734,-0.51953 0.179687,-0.67578 -2.355469,-3.125 -5.171875,-6.38282 -5.804687,-7.36328 -1.230469,-1.89454 -5.699219,-0.78125 -5.699219,-0.78125 l -14.769531,-9.11329 -4.730469,7.83204 -1.601563,2.64843 -1.175781,4.55078 c 0,0 8.234375,-0.45312 8.902344,2.22266 0.671875,2.67969 4.238281,14.16797 4.238281,14.16797 0,0 0.664063,0.21484 1.652344,0.20312 0.691406,-0.008 1.53125,-0.125 2.441406,-0.51171 0.07422,-0.0312 0.144531,-0.0547 0.214844,-0.0781 z M 234.94141,27.625 c -0.0898,2.441406 -8.54297,13.789063 -8.04688,22.0625 0.27735,4.566406 -1.6914,8.105469 -3.59375,10.464844 -1.41797,-0.890625 -2.85156,-1.757813 -4.21094,-2.535156 -0.0234,-0.01172 -0.043,-0.02344 -0.0625,-0.03516 -1.35937,-0.777343 -2.64843,-1.464843 -3.77734,-1.996093 0.64063,-1.558594 1.26172,-3.394532 1.38281,-5.082032 0.26953,-3.800781 1.49219,-12.074218 1.35547,-13.519531 -0.13672,-1.449219 2.75781,-5.921875 4.25,-7.28125 1.49219,-1.355469 4.7461,-7.550781 5.51563,-9.355469 0.76953,-1.8125 -0.85938,-5.519531 -1.08203,-6.152345 -0.23047,-0.632811 -0.27344,-2.980467 0.58593,-2.980467 0.71485,0 2.86328,3.804687 3.72266,5.089843 -0.20313,0.164063 -0.27344,0.449219 -0.14453,0.687501 0.53125,1 1.10937,2.328125 1.10937,2.71875 -0.0352,0.625 -1.77343,6.457031 -2.86328,9.984375 -0.0898,0.296875 0.0742,0.609375 0.36719,0.699218 0.0586,0.01563 0.11328,0.02734 0.16797,0.02734 0.23828,0 0.45703,-0.15625 0.53125,-0.394531 0.68359,-2.214844 2.91406,-9.507813 2.91406,-10.308594 0,-0.878906 -1.03516,-2.863281 -1.24609,-3.253906 -0.0859,-0.164063 -0.25,-0.257813 -0.42188,-0.28125 0.0937,-2.476563 -0.26562,-12.644532 -0.0703,-13.515625 0.22656,-0.996094 1.62891,-0.316407 1.72266,-1.222657 C 233.13672,0.54296899 234.94141,0 234.94141,0 c 1.8125,7.9570313 0.0937,25.183594 0,27.625" />
        </g>
      </g>
    </g>
    <g
       transform="matrix(0.08466666,0,0,0.08466666,-6.299126,-5.9532875)"
       id="g3807">
      <g
         clip-path="url(#clipPath3813)"
         id="g3809">
        <g
           transform="matrix(1.247978,0,0,1.2455162,74.445694,71.875)"
           id="g3815">
          <path
             inkscape:connector-curvature="0"
             id="path3817"
             style="fill:#7b2e21;fill-opacity:1;fill-rule:nonzero;stroke:none"
             d="m 101.03906,86.675781 c 0,0 -3.777341,11.519532 -10.91406,12.484375 -3.105469,0.417969 -9.550781,-0.566406 -15.832031,-1.808593 l -1.992188,-8.679688 -0.08594,-0.378906 C 71.320313,86.839844 70.652344,85.691406 70.324219,85 c -0.28125,-0.589844 -0.554688,-1.363281 -0.820313,-2.261719 -0.07422,0.01172 -0.144531,0.01953 -0.214843,0.03125 0.105468,-0.214843 0.222656,-0.425781 0.304687,-0.636718 1.085938,-2.664063 0.332031,-7.820313 -0.683594,-12.277344 0.425782,-0.234375 0.816407,-0.503906 1.171875,-0.808594 5.371094,5.859375 12.339844,10.421875 20.335938,9.890625 0.242187,0.679688 0.496094,1.257813 0.761719,1.691406 0.01172,1.335938 1.628906,3.265625 3.398437,4.835938 0.523438,0.464844 1.058594,0.902344 1.570313,1.277344 l 4.890622,-0.06641" />
        </g>
      </g>
    </g>
  </g>
</svg>
